<?xml version="1.0" standalone="no"?><!DOCTYPE svg PUBLIC "-//W3C//DTD SVG 1.1//EN" "http://www.w3.org/Graphics/SVG/1.1/DTD/svg11.dtd"><svg width="16" height="16" viewBox="0 0 16 16" version="1.1" xmlns="http://www.w3.org/2000/svg" xmlns:xlink="http://www.w3.org/1999/xlink"><defs><style type="text/css"><![CDATA[

]]></style></defs><g class="transform-group"><g transform="scale(0.015625, 0.015625)"><path d="M772.839215 63.944358 250.9858 63.944358c-51.463092 0-93.188402 41.726334-93.188402 93.188402l0 708.231243c0 51.470255 41.726334 93.187379 93.188402 93.187379l521.854439 0c51.452859 0 93.188402-41.718147 93.188402-93.187379L866.028641 157.13276C866.028641 105.670691 824.293097 63.944358 772.839215 63.944358zM456.00008 119.857808l111.823831 0c10.29446 0 18.638499 8.345062 18.638499 18.637476s-8.344039 18.637476-18.638499 18.637476L456.00008 157.13276c-10.29446 0-18.637476-8.345062-18.637476-18.637476S445.70562 119.857808 456.00008 119.857808zM511.912507 902.637931c-30.879288 0-55.912427-25.036209-55.912427-55.912427 0-30.878265 25.03314-55.915497 55.912427-55.915497 30.888498 0 55.912427 25.037233 55.912427 55.915497C567.824935 877.601722 542.799982 902.637931 511.912507 902.637931zM754.200716 716.261127 269.623275 716.261127 269.623275 213.046211 754.200716 213.046211 754.200716 716.261127z" fill="#707070"></path></g></g></svg>