<?xml version="1.0" standalone="no"?><!DOCTYPE svg PUBLIC "-//W3C//DTD SVG 1.1//EN" "http://www.w3.org/Graphics/SVG/1.1/DTD/svg11.dtd"><svg width="32" height="32" viewBox="0 0 32 32" version="1.1" xmlns="http://www.w3.org/2000/svg" xmlns:xlink="http://www.w3.org/1999/xlink"><defs><style type="text/css"><![CDATA[

]]></style></defs><g class="transform-group"><g transform="scale(0.03125, 0.03125)"><path d="M302.525128 512.282433c3.240811 2.270716 5.717212 3.529383 7.585769 5.389754C439.263395 646.732587 568.350402 775.863596 697.519274 904.905578c7.895831 7.890714 12.644995 16.645099 10.933003 28.069289-1.701758 11.364839-8.035 19.35379-18.628266 23.426549-10.815323 4.155646-21.038152 2.339278-30.05348-5.130857-1.738597-1.440815-3.296069-3.103688-4.892427-4.705162-136.827295-136.816039-273.649474-273.632077-410.470629-410.458349-16.056698-16.063861-16.134469-32.401967-0.215918-48.326659C381.296169 350.670661 518.423293 213.589586 655.471622 76.41846c8.986675-8.992815 19.054985-13.530155 31.720446-10.029424 20.727067 5.723352 28.573779 31.160697 14.738679 47.623647-1.845021 2.199085-3.956102 4.188392-5.995551 6.221702C566.976102 249.198595 438.015985 378.157689 309.035402 507.10041 307.577191 508.547365 305.816081 509.678118 302.525128 512.282433L302.525128 512.282433 302.525128 512.282433zM302.525128 512.282433" fill="#56abe4"></path></g></g></svg>